<?xml version="1.0" encoding="UTF-8" standalone="no"?>
<svg width="61px" height="66px" viewBox="0 0 61 66" version="1.1" xmlns="http://www.w3.org/2000/svg" xmlns:xlink="http://www.w3.org/1999/xlink">
    <!-- Generator: Sketch 49.3 (51167) - http://www.bohemiancoding.com/sketch -->
    <title>Shape</title>
    <desc>Created with Sketch.</desc>
    <defs></defs>
    <g id="Page-1" stroke="none" stroke-width="1" fill="none" fill-rule="evenodd">
        <g id="Inventory" transform="translate(-134.000000, -30.000000)" fill="#FFFFFF" fill-rule="nonzero">
            <g id="Nav" transform="translate(-1.000000, 0.000000)">
                <g id="Logo-Copy" transform="translate(47.000000, 30.000000)">
                    <path d="M148.972031,15.5597298 C148.972031,15.3089911 148.916094,15.0582524 148.804218,14.8214436 C148.580468,14.3478261 148.146951,14.0274377 147.671481,13.9299282 L119.185236,0.167159139 C118.723751,-0.055719713 118.178359,-0.055719713 117.716873,0.167159139 L88.9509399,14.0552976 C88.3915635,14.3199662 88.0279688,14.8771634 88,15.5040101 L88,15.5179401 C88,15.53187 88,15.5457999 88,15.5736598 L88,50.4263402 C88,51.0671169 88.3635947,51.6521739 88.9509399,51.9307725 L117.716873,65.8189109 C117.730857,65.8189109 117.730857,65.8189109 117.744842,65.8328409 C117.786795,65.8467708 117.828748,65.8607007 117.870702,65.8885606 C117.884686,65.8885606 117.89867,65.9024905 117.926639,65.9024905 C117.968592,65.9164204 118.010546,65.9303504 118.052499,65.9442803 C118.066483,65.9442803 118.080468,65.9582102 118.094452,65.9582102 C118.136405,65.9721401 118.192343,65.9721401 118.234296,65.9860701 C118.248281,65.9860701 118.262265,65.9860701 118.276249,65.9860701 C118.332187,65.9860701 118.402109,66 118.458047,66 C118.513984,66 118.583906,66 118.639844,65.9860701 C118.653829,65.9860701 118.667813,65.9860701 118.681797,65.9860701 C118.723751,65.9860701 118.779688,65.9721401 118.821641,65.9582102 C118.835626,65.9582102 118.84961,65.9442803 118.863595,65.9442803 C118.905548,65.9303504 118.947501,65.9164204 118.989454,65.9024905 C119.003439,65.9024905 119.017423,65.8885606 119.045392,65.8885606 C119.087345,65.8746306 119.129298,65.8607007 119.171252,65.8328409 C119.185236,65.8328409 119.185236,65.8328409 119.199221,65.8189109 L148.04906,51.8889827 C148.622421,51.6103841 149,51.0253271 149,50.3845504 L149,15.6015196 C148.972031,15.5875897 148.972031,15.5736598 148.972031,15.5597298 Z M118.444062,3.52427184 L143.392251,15.5736598 L134.204493,20.0173069 L109.256304,7.96791895 L118.444062,3.52427184 Z M118.444062,27.6230477 L93.4958735,15.5736598 L105.410591,9.82059941 L130.35878,21.8699873 L118.444062,27.6230477 Z M91.3562586,18.2621359 L116.765933,30.5344027 L116.765933,61.6399325 L91.3562586,49.3676657 L91.3562586,18.2621359 Z M120.122192,61.6399325 L120.122192,30.5344027 L132.050894,24.7674124 L132.050894,32.9024905 C132.050894,33.8218658 132.806052,34.5740819 133.729023,34.5740819 C134.651994,34.5740819 135.407153,33.8218658 135.407153,32.9024905 L135.407153,23.1376108 L145.615773,18.2064162 L145.615773,49.311946 L120.122192,61.6399325 Z" id="Shape"></path>
                </g>
            </g>
        </g>
    </g>
</svg>